<?xml version="1.0" encoding="UTF-8" standalone="no"?>
<!-- Created with Inkscape (http://www.inkscape.org/) -->

<svg
   xmlns:dc="http://purl.org/dc/elements/1.1/"
   xmlns:cc="http://creativecommons.org/ns#"
   xmlns:rdf="http://www.w3.org/1999/02/22-rdf-syntax-ns#"
   xmlns:svg="http://www.w3.org/2000/svg"
   xmlns="http://www.w3.org/2000/svg"
   xmlns:sodipodi="http://sodipodi.sourceforge.net/DTD/sodipodi-0.dtd"
   xmlns:inkscape="http://www.inkscape.org/namespaces/inkscape"
   width="151.94115mm"
   height="110.76765mm"
   viewBox="0 0 151.94115 110.76765"
   version="1.1"
   id="svg4636"
   inkscape:version="0.92.4 (5da689c313, 2019-01-14)"
   sodipodi:docname="překližka 4mm.svg">
  <defs
     id="defs4630" />
  <sodipodi:namedview
     id="base"
     pagecolor="#ffffff"
     bordercolor="#666666"
     borderopacity="1.0"
     inkscape:pageopacity="0.0"
     inkscape:pageshadow="2"
     inkscape:zoom="0.98994949"
     inkscape:cx="425.17989"
     inkscape:cy="265.7604"
     inkscape:document-units="mm"
     inkscape:current-layer="layer1"
     showgrid="false"
     inkscape:window-width="1920"
     inkscape:window-height="1027"
     inkscape:window-x="1912"
     inkscape:window-y="-8"
     inkscape:window-maximized="1" />
  <metadata
     id="metadata4633">
    <rdf:RDF>
      <cc:Work
         rdf:about="">
        <dc:format>image/svg+xml</dc:format>
        <dc:type
           rdf:resource="http://purl.org/dc/dcmitype/StillImage" />
        <dc:title></dc:title>
      </cc:Work>
    </rdf:RDF>
  </metadata>
  <g
     inkscape:label="Layer 1"
     inkscape:groupmode="layer"
     id="layer1"
     transform="translate(-7.1877239,-125.16842)">
    <g
       id="Setup43"
       transform="translate(-3115.8778,177.29342)">
      <path
         id="op_2D_Profile44-88-37"
         d="m 3249.488,-16.817 a 1.425,1.425 0 0 0 0.169,-2.009 1.425,1.425 0 0 0 -2.009,-0.168 1.425,1.425 0 0 0 -0.168,2.008 1.425,1.425 0 0 0 2.008,0.169 z m 1.364,4.426 a 1.525,1.525 0 0 0 1.083,1.865 1.525,1.525 0 0 0 1.865,-1.083 1.525,1.525 0 0 0 -1.083,-1.865 1.525,1.525 0 0 0 -1.865,1.083 z m -3.006,4.149 a 1.425,1.425 0 0 0 -1.425,-1.425 1.425,1.425 0 0 0 -1.425,1.425 1.425,1.425 0 0 0 1.425,1.425 1.425,1.425 0 0 0 1.425,-1.425 z m 7.319,1.059 a 1.425,1.425 0 0 0 -0.169,2.009 1.425,1.425 0 0 0 2.008,0.168 1.425,1.425 0 0 0 0.169,-2.008 1.425,1.425 0 0 0 -2.008,-0.169 z m 2.587,-7.233 a 1.425,1.425 0 0 0 1.822,-0.862 1.425,1.425 0 0 0 -0.862,-1.822 1.425,1.425 0 0 0 -1.822,0.862 1.425,1.425 0 0 0 0.862,1.822 z m 5.605,-2.497 a 12.075,12.075 0 0 1 -6.118,15.944 12.075,12.075 0 0 1 -15.39,-5.029 l -21.156,-36.93 -83.371,-5.316 a 0.075,0.075 0 0 1 -0.071,-0.075 V -49 a 0.075,0.075 0 0 1 0.075,-0.075 h 9.925 V -52 a 0.075,0.075 0 0 1 0.075,-0.075 h 15 a 0.075,0.075 0 0 1 0.075,0.075 v 2.925 h 9.85 V -52 a 0.075,0.075 0 0 1 0.075,-0.075 h 15 a 0.075,0.075 0 0 1 0.075,0.075 v 2.925 h 9.85 V -52 a 0.075,0.075 0 0 1 0.075,-0.075 h 15 a 0.075,0.075 0 0 1 0.075,0.075 v 2.925 h 9.85 V -52 a 0.075,0.075 0 0 1 0.075,-0.075 h 14 a 0.075,0.075 0 0 1 0.06,0.029 l 25.459,32.616 a 12.075,12.075 0 0 1 1.512,2.517 z"
         inkscape:connector-curvature="0"
         style="fill:none;stroke:#ff0000;stroke-width:0.1" />
    </g>
    <g
       id="Setup44"
       transform="matrix(1,0,0,-1,-3253.7889,132.24464)">
      <path
         id="op_2D_Profile45-90-38"
         d="m 3286.326,-13.525 a 1.525,1.525 0 0 0 -1.525,1.525 1.525,1.525 0 0 0 1.525,1.525 1.525,1.525 0 0 0 1.525,-1.525 1.525,1.525 0 0 0 -1.525,-1.525 z m -8.778,-6.853 24.719,-31.668 a 0.075,0.075 0 0 1 0.059,-0.029 h 14 a 0.075,0.075 0 0 1 0.075,0.075 v 2.925 h 9.85 V -52 a 0.075,0.075 0 0 1 0.075,-0.075 h 15 a 0.075,0.075 0 0 1 0.075,0.075 v 2.925 h 9.85 V -52 a 0.075,0.075 0 0 1 0.075,-0.075 h 15 a 0.075,0.075 0 0 1 0.075,0.075 v 2.925 h 9.85 V -52 a 0.075,0.075 0 0 1 0.075,-0.075 h 15 a 0.075,0.075 0 0 1 0.075,0.075 v 2.925 h 9.925 a 0.075,0.075 0 0 1 0.075,0.075 v 0.681 a 0.075,0.075 0 0 1 -0.07,0.075 l -83.371,5.316 -21.156,36.93 a 12.075,12.075 0 0 1 -16.48,4.476 12.075,12.075 0 0 1 -5.846,-8.151 12.075,12.075 0 0 1 2.33,-9.757 z"
         inkscape:connector-curvature="0"
         style="fill:none;stroke:#ff0000;stroke-width:0.1" />
    </g>
    <g
       id="Setup46"
       transform="rotate(-3.6417273,5484.6144,55357.998)">
      <path
         id="op_2D_Profile47-94-40"
         d="m 3534.996,-16.986 a 1.425,1.425 0 0 0 2.009,0.169 1.425,1.425 0 0 0 0.168,-2.009 1.425,1.425 0 0 0 -2.008,-0.168 1.425,1.425 0 0 0 -0.169,2.008 z m -2.67,3.561 a 1.425,1.425 0 0 0 -1.425,1.425 1.425,1.425 0 0 0 1.425,1.425 1.425,1.425 0 0 0 1.425,-1.425 1.425,1.425 0 0 0 -1.425,-1.425 z m -4.985,-1.245 a 1.425,1.425 0 0 0 0.168,-2.008 1.425,1.425 0 0 0 -2.008,-0.168 1.425,1.425 0 0 0 -0.168,2.008 1.425,1.425 0 0 0 2.008,0.168 z m 2.316,7.656 a 1.425,1.425 0 0 0 -2.009,-0.169 1.425,1.425 0 0 0 -0.168,2.009 1.425,1.425 0 0 0 2.008,0.168 1.425,1.425 0 0 0 0.169,-2.008 z m 7.164,-1.026 a 1.425,1.425 0 0 0 1.613,1.209 1.425,1.425 0 0 0 1.209,-1.613 1.425,1.425 0 0 0 -1.613,-1.208 1.425,1.425 0 0 0 -1.209,1.612 z m 4.566,4.022 a 12.075,12.075 0 0 1 -17.043,1.078 12.075,12.075 0 0 1 -2.181,-15.58 l 18.248,-28.445 a 0.075,0.075 0 0 1 0.068,-0.034 l 8.626,0.55 0.186,-2.919 a 0.075,0.075 0 0 1 0.08,-0.07 l 14.969,0.954 a 0.075,0.075 0 0 1 0.052,0.025 0.075,0.075 0 0 1 0.018,0.055 l -0.186,2.919 9.83,0.627 0.186,-2.92 a 0.075,0.075 0 0 1 0.08,-0.07 l 14.969,0.955 a 0.075,0.075 0 0 1 0.071,0.08 l -0.187,2.919 9.83,0.626 0.187,-2.919 a 0.075,0.075 0 0 1 0.025,-0.051 0.075,0.075 0 0 1 0.054,-0.019 l 14.97,0.955 a 0.075,0.075 0 0 1 0.07,0.08 l -0.186,2.919 9.83,0.626 0.186,-2.919 a 0.075,0.075 0 0 1 0.079,-0.07 l 14.97,0.955 a 0.075,0.075 0 0 1 0.07,0.079 l -0.186,2.919 9.905,0.632 a 0.075,0.075 0 0 1 0.07,0.08 l -0.192,3.006 a 0.075,0.075 0 0 1 -0.075,0.07 l -83.989,-0.02 a 14.925,14.925 0 0 0 -14.01,9.768 l -7.123,19.349 a 12.075,12.075 0 0 1 -2.271,3.81 z"
         inkscape:connector-curvature="0"
         style="fill:none;stroke:#ff0000;stroke-width:0.1" />
    </g>
    <g
       id="Setup47"
       transform="matrix(0.99798073,-0.06351734,-0.06351734,-0.99798073,-3621.7523,422.9552)">
      <path
         id="op_2D_Profile48-96-41"
         d="m 3777.043,-12 a 1.425,1.425 0 0 0 -1.425,-1.425 1.425,1.425 0 0 0 -1.425,1.425 1.425,1.425 0 0 0 1.425,1.425 1.425,1.425 0 0 0 1.425,-1.425 z m 10.65,0 a 12.075,12.075 0 0 1 -12.075,12.075 12.075,12.075 0 0 1 -11.332,-7.903 l -7.123,-19.349 a 14.925,14.925 0 0 0 -14.01,-9.768 l -83.989,0.02 a 0.075,0.075 0 0 1 -0.075,-0.07 l -0.192,-3.006 a 0.075,0.075 0 0 1 0.07,-0.08 l 9.905,-0.632 -0.186,-2.919 a 0.075,0.075 0 0 1 0.07,-0.079 l 14.97,-0.955 a 0.075,0.075 0 0 1 0.079,0.07 l 0.187,2.919 9.83,-0.626 -0.187,-2.919 a 0.075,0.075 0 0 1 0.071,-0.08 l 14.969,-0.955 a 0.075,0.075 0 0 1 0.054,0.019 0.075,0.075 0 0 1 0.026,0.051 l 0.186,2.919 9.83,-0.626 -0.186,-2.919 a 0.075,0.075 0 0 1 0.07,-0.08 l 14.969,-0.955 a 0.075,0.075 0 0 1 0.08,0.07 l 0.186,2.92 9.83,-0.627 -0.186,-2.919 a 0.075,0.075 0 0 1 0.019,-0.055 0.075,0.075 0 0 1 0.051,-0.025 l 14.97,-0.954 a 0.075,0.075 0 0 1 0.079,0.07 l 0.187,2.919 8.626,-0.55 a 0.075,0.075 0 0 1 0.068,0.034 l 18.247,28.445 a 12.075,12.075 0 0 1 1.912,6.52 z"
         inkscape:connector-curvature="0"
         style="fill:none;stroke:#ff0000;stroke-width:0.1" />
    </g>
  </g>
</svg>
